<svg width="592" height="480" viewBox="0 0 592 480" fill="none" xmlns="http://www.w3.org/2000/svg">
<path d="M38.8817 425.949C32.7507 425.947 26.7111 424.465 21.2762 421.627C15.8414 418.789 11.1724 414.681 7.66687 409.651C4.16133 404.621 1.92284 398.818 1.14197 392.737C0.361089 386.656 1.06105 380.476 3.182 374.724C5.33501 368.883 56.0319 231.394 65.6429 206.624L136.608 234.156C131.208 248.085 111.623 300.881 95.892 343.412L122.026 340.572L130.252 416.244L42.9999 425.726C41.6323 425.875 40.2574 425.949 38.8817 425.949V425.949Z" fill="#367CFF"></path>
<path d="M84.4922 422.062L72.8862 479.828H298.297L285.314 420.963L84.4922 422.062Z" fill="#262626"></path>
<path d="M133.229 163.906C114.396 165.306 95.1933 171.423 81.0533 183.94C59.7243 202.82 61.6221 214.621 72.2691 266.903C81.4301 311.889 77.7959 331.547 83.9239 414.558C84.1049 417.004 84.4922 422.058 84.4922 422.058L285.954 421.724C285.954 421.724 304.829 311.589 315.254 260.791C323.179 222.173 343.996 175.291 256.222 165.843C255.989 165.822 185.591 160.021 133.229 163.906Z" fill="#367CFF"></path>
<path d="M545.842 122.262C536.352 122.259 527.103 119.272 519.403 113.724C511.704 108.176 505.943 100.348 502.937 91.3464C499.931 82.3449 499.831 72.626 502.652 63.5646C505.472 54.5033 511.071 46.558 518.654 40.853C526.238 35.1479 535.424 31.9717 544.912 31.7738C554.4 31.5758 563.71 34.3661 571.526 39.7499C579.341 45.1338 585.266 52.8386 588.462 61.7744C591.658 70.7103 591.963 80.4249 589.335 89.5439V89.5439C586.604 98.9706 580.888 107.257 573.045 113.156C565.202 119.056 555.656 122.252 545.842 122.262V122.262ZM545.811 41.9019C536.904 41.8967 528.325 45.2687 521.806 51.3381C515.286 57.4076 511.31 65.723 510.679 74.6081C510.048 83.4933 512.809 92.2872 518.405 99.2172C524.002 106.147 532.017 110.698 540.836 111.951C549.655 113.205 558.621 111.069 565.927 105.973C573.233 100.878 578.335 93.2017 580.206 84.4928C582.076 75.7838 580.575 66.6897 576.006 59.0437C571.436 51.3977 564.137 45.7685 555.581 43.2909C552.406 42.372 549.117 41.9037 545.811 41.8999V41.9019Z" fill="#0A0A0A"></path>
<path d="M507.633 178.026C506.804 178.026 505.988 177.823 505.256 177.434C504.524 177.046 503.898 176.484 503.433 175.798C502.968 175.112 502.678 174.323 502.589 173.499C502.499 172.675 502.613 171.842 502.92 171.072L526 113.164C526.498 111.914 527.473 110.913 528.709 110.381C529.945 109.85 531.342 109.831 532.592 110.329C533.842 110.828 534.843 111.802 535.375 113.039C535.906 114.275 535.925 115.672 535.427 116.922L512.346 174.83C511.97 175.773 511.32 176.582 510.48 177.151C509.64 177.721 508.648 178.026 507.633 178.026Z" fill="#0A0A0A"></path>
<path d="M489.962 171.673L504.116 139.924C504.427 139.227 504.88 138.602 505.445 138.089C506.011 137.577 506.677 137.187 507.401 136.946C508.126 136.705 508.892 136.617 509.652 136.688C510.412 136.76 511.149 136.988 511.816 137.36C513.025 138.085 513.922 139.233 514.333 140.582C514.745 141.93 514.641 143.383 514.043 144.66L511.008 151.467L530.379 134.439C532.5 132.508 536.337 131.495 538.346 134.017C539.182 134.937 539.682 136.113 539.764 137.354C539.846 138.594 539.506 139.826 538.798 140.848C538.821 140.863 538.843 140.881 538.862 140.901C538.874 140.918 538.885 140.937 538.894 140.956L542.164 137.979C542.77 137.428 543.491 137.019 544.275 136.782C545.059 136.544 545.886 136.485 546.696 136.608C547.506 136.732 548.279 137.034 548.957 137.493C549.635 137.953 550.202 138.558 550.617 139.264C551.248 140.39 551.472 141.698 551.254 142.969C551.035 144.241 550.387 145.399 549.417 146.25L548.025 147.517C548.043 147.574 548.051 147.634 548.048 147.694C549.187 147.057 550.515 146.845 551.796 147.097C553.076 147.349 554.225 148.048 555.038 149.069C555.894 150.213 556.287 151.638 556.139 153.059C555.99 154.48 555.311 155.792 554.238 156.735L550.782 159.882C550.862 159.872 550.944 159.881 551.02 159.909C551.095 159.936 551.164 159.982 551.219 160.041C551.281 160.115 551.319 160.205 551.331 160.3C552.503 160.014 553.736 160.12 554.841 160.603C555.947 161.086 556.863 161.919 557.449 162.973C558.042 164.093 558.24 165.381 558.01 166.628C557.78 167.874 557.136 169.007 556.182 169.842L527.025 196.4C522.945 200.114 517.848 202.526 512.389 203.325C506.93 204.124 501.356 203.274 496.383 200.885V200.885C492.095 198.825 488.779 195.174 487.139 190.708C485.5 186.242 485.666 181.312 487.603 176.967L489.962 171.673Z" fill="#E98862"></path>
<g opacity="0.2">
<path opacity="0.2" d="M519.712 157.8C519.802 157.897 519.926 157.956 520.059 157.962C520.191 157.969 520.321 157.924 520.42 157.836L538.82 141.619C538.921 141.53 538.982 141.405 538.991 141.27C538.999 141.136 538.954 141.004 538.865 140.903C538.821 140.853 538.767 140.812 538.708 140.783C538.648 140.754 538.583 140.736 538.516 140.732C538.382 140.724 538.25 140.769 538.149 140.858L519.749 157.075C519.699 157.119 519.658 157.172 519.629 157.232C519.6 157.292 519.582 157.357 519.578 157.424C519.574 157.49 519.583 157.557 519.605 157.62C519.626 157.683 519.66 157.741 519.704 157.791L519.712 157.8Z" fill="#0C0C0C"></path>
</g>
<g opacity="0.2">
<path opacity="0.2" d="M526.64 166.115C526.73 166.212 526.855 166.271 526.987 166.277C527.12 166.284 527.25 166.239 527.349 166.151L547.884 148.051C547.985 147.962 548.046 147.836 548.055 147.702C548.063 147.567 548.018 147.435 547.929 147.334C547.838 147.237 547.713 147.178 547.58 147.17C547.447 147.162 547.316 147.204 547.213 147.289L526.677 165.389C526.576 165.478 526.515 165.603 526.506 165.738C526.498 165.872 526.543 166.004 526.632 166.105L526.64 166.115Z" fill="#0C0C0C"></path>
</g>
<g opacity="0.2">
<path opacity="0.2" d="M534.092 175.161C534.182 175.258 534.307 175.317 534.439 175.323C534.571 175.33 534.701 175.285 534.801 175.198L551.182 160.761C551.235 160.718 551.279 160.664 551.311 160.604C551.342 160.543 551.362 160.477 551.367 160.409C551.373 160.341 551.364 160.272 551.343 160.207C551.321 160.142 551.287 160.082 551.242 160.031C551.196 159.98 551.141 159.938 551.08 159.909C551.018 159.879 550.951 159.863 550.882 159.86C550.814 159.857 550.746 159.868 550.682 159.892C550.618 159.916 550.559 159.953 550.51 160L534.129 174.436C534.028 174.525 533.967 174.651 533.959 174.785C533.95 174.92 533.995 175.052 534.084 175.153L534.092 175.161Z" fill="#0C0C0C"></path>
</g>
<path d="M481.115 161.365L395.3 258.006L308.583 182.982L258.783 240.546L373.905 340.146L374.681 340.817C374.948 341.047 375.22 341.274 375.499 341.498C379.298 344.572 383.666 346.867 388.352 348.253C393.038 349.64 397.952 350.089 402.812 349.576C407.672 349.063 412.383 347.598 416.677 345.264C420.971 342.931 424.763 339.774 427.837 335.975L533.315 205.615L481.115 161.365Z" fill="#367CFF"></path>
<path d="M256.22 165.851C255.986 165.82 249.592 189.884 199.689 186.139C165.141 183.551 156.718 160.039 155.926 160.039C159.651 159.247 165.7 158.425 167.354 157.539C172.794 154.616 176.754 151.058 178.754 143.422C180.314 137.45 181.109 114.461 181.109 102.922L234.27 114.868C233.529 127.879 228.343 158.042 246.52 163.38C249.542 164.267 252.8 165.079 256.22 165.851Z" fill="#E98862"></path>
<path d="M232.428 140.452C211.47 142.105 184.549 133.257 179.435 105.296L174.821 80.067C169.707 52.106 180.248 26.753 206.574 21.938C232.901 17.124 256.724 36.192 261.838 64.152L263.88 75.322C265.842 86.05 269.82 137.5 232.428 140.452Z" fill="#E98862"></path>
<path d="M251.86 114.78C248.098 95.8799 246.373 83.2679 246.573 69.9629C251.873 60.6689 250.479 50.002 249.273 45.393C254.466 48.226 256.638 48.535 261.526 48.535C261.526 48.535 252.764 13.3669 222.98 3.90395C217.504 1.77195 203.52 -0.920051 184.953 1.62595C169.16 3.79195 130.233 15.5999 124.672 59.4259V59.451C124.488 60.904 120.75 101.283 113.299 120.657C103.281 146.701 89.218 154.793 89.574 184.841C90.033 223.493 161.091 228.641 203.951 225.747C246.811 222.853 270.735 208.763 271.045 180.908C271.39 149.7 259.387 152.6 251.86 114.78Z" fill="#0A0A0A"></path>
<path d="M251.872 98.9359C243.872 100.399 235.82 93.0259 234.357 85.0249C232.894 77.0239 238.573 71.4249 246.573 69.9629L251.872 98.9359Z" fill="#E98862"></path>
<path d="M310.438 285.747C310.364 285.747 310.29 285.731 310.222 285.699C310.155 285.667 310.095 285.621 310.047 285.564C310 285.507 309.965 285.44 309.946 285.368C309.927 285.296 309.925 285.22 309.938 285.147L315.044 258.087C315.069 257.954 315.145 257.837 315.257 257.761C315.368 257.685 315.506 257.656 315.638 257.681C315.771 257.706 315.888 257.782 315.964 257.894C316.04 258.005 316.069 258.142 316.044 258.275L310.938 285.335C310.916 285.451 310.854 285.556 310.762 285.631C310.671 285.706 310.556 285.747 310.438 285.747V285.747Z" fill="#0C0C0C"></path>
<path d="M84.4911 422.57C84.36 422.57 84.234 422.519 84.1396 422.428C84.0452 422.337 83.9895 422.213 83.9848 422.082L77.6718 258.2C77.6691 258.133 77.6795 258.067 77.7026 258.004C77.7256 257.942 77.7608 257.884 77.8061 257.836C77.8513 257.787 77.9057 257.747 77.9662 257.719C78.0268 257.691 78.0925 257.676 78.1591 257.673C78.2917 257.674 78.4187 257.724 78.516 257.815C78.6133 257.905 78.6738 258.028 78.685 258.16L84.9999 422.043C85.0051 422.178 84.9567 422.309 84.8652 422.408C84.7736 422.506 84.6467 422.565 84.5121 422.57H84.4911Z" fill="#0C0C0C"></path>
<path d="M389.535 266.332C389.427 266.332 389.321 266.297 389.235 266.232C389.181 266.192 389.136 266.143 389.101 266.085C389.067 266.028 389.044 265.965 389.034 265.899C389.024 265.833 389.027 265.766 389.043 265.701C389.059 265.636 389.088 265.575 389.128 265.522L394.889 257.703C394.926 257.644 394.975 257.594 395.033 257.555C395.09 257.515 395.156 257.489 395.224 257.476C395.292 257.463 395.363 257.464 395.43 257.48C395.498 257.495 395.562 257.524 395.618 257.566C395.675 257.607 395.722 257.659 395.757 257.719C395.792 257.779 395.814 257.846 395.822 257.915C395.83 257.984 395.825 258.054 395.805 258.121C395.784 258.188 395.751 258.25 395.706 258.303L389.944 266.122C389.897 266.187 389.836 266.24 389.764 266.276C389.693 266.313 389.615 266.332 389.535 266.332Z" fill="#0C0C0C"></path>
</svg>